<?xml version="1.0" encoding="UTF-8" standalone="no"?>
<!DOCTYPE svg PUBLIC "-//W3C//DTD SVG 1.1//EN" "http://www.w3.org/Graphics/SVG/1.1/DTD/svg11.dtd">
<svg width="100%" height="100%" viewBox="0 0 180 120" version="1.1" xmlns="http://www.w3.org/2000/svg" xmlns:xlink="http://www.w3.org/1999/xlink" xml:space="preserve" xmlns:serif="http://www.serif.com/" style="fill-rule:evenodd;clip-rule:evenodd;stroke-linejoin:round;">
    <g transform="matrix(1,0,0,1,-260.432,-14.124)">
        <g>
            <text x="280.859px" y="62.875px" style="font-family:'HelveticaNeue', 'Helvetica Neue';font-size:13px;">K</text>
            <text x="289.53px" y="68.875px" style="font-family:'HelveticaNeue', 'Helvetica Neue';font-size:10px;">D</text>
        </g>
    </g>
    <g transform="matrix(1,0,0,1,-250.696,10.0368)">
        <g>
            <text x="280.859px" y="62.875px" style="font-family:'HelveticaNeue', 'Helvetica Neue';font-size:13px;">K</text>
            <text x="289.53px" y="66.203px" style="font-family:'HelveticaNeue', 'Helvetica Neue';font-size:8px;">x</text>
        </g>
    </g>
    <g transform="matrix(1,0,0,1,-260.432,-14.124)">
        <text x="334.126px" y="89.766px" style="font-family:'HelveticaNeue', 'Helvetica Neue';font-size:13.647px;">K</text>
        <text x="343.228px" y="92.037px" style="font-family:'HelveticaNeue', 'Helvetica Neue';font-size:7.957px;">x</text>
    </g>
    <g transform="matrix(1,0,0,1,-260.432,-14.124)">
        <text x="378.623px" y="91.728px" style="font-family:'HelveticaNeue', 'Helvetica Neue';font-size:13.647px;">K</text>
        <text x="387.725px" y="93.999px" style="font-family:'HelveticaNeue', 'Helvetica Neue';font-size:7.957px;">x</text>
    </g>
    <g transform="matrix(0,-1,-1,-0,128.451,449.314)">
        <ellipse cx="351.161" cy="37.723" rx="3.981" ry="3.981" style="fill:rgb(3,3,3);"/>
    </g>
    <g transform="matrix(0,-1,-1,-0,138.687,459.55)">
        <ellipse cx="361.396" cy="37.723" rx="3.981" ry="3.981" style="fill:rgb(3,3,3);"/>
    </g>
    <g transform="matrix(0,-1,-1,-0,147.785,468.648)">
        <ellipse cx="370.495" cy="37.723" rx="3.981" ry="3.98" style="fill:rgb(3,3,3);"/>
    </g>
    <g transform="matrix(0,-1,-1,-0,171.1,428.501)">
        <ellipse cx="362.078" cy="69.454" rx="3.981" ry="3.981" style="fill:rgb(3,3,3);"/>
    </g>
    <g transform="matrix(1,0,0,1,-260.432,42.4608)">
        <path d="M351.274,52.508C351.16,50.688 351.16,48.869 351.615,47.162C352.07,45.457 352.98,43.751 354.459,42.613C355.71,41.704 357.302,41.248 358.78,40.907C359.69,40.68 360.6,40.452 361.624,40.225C362.761,39.884 364.012,39.656 365.263,39.656C366.514,39.656 367.765,40.111 368.561,41.135C369.244,42.045 369.471,43.182 369.585,44.319C370.04,47.504 370.495,50.575 370.836,53.759" style="fill:none;stroke:black;stroke-width:3.33px;"/>
    </g>
    <g transform="matrix(1,0,0,1,-260.432,26.0836)">
        <path d="M361.282,69.454C360.031,62.516 358.78,55.351 360.031,48.3C360.6,45.57 361.51,42.954 361.965,40.339" style="fill:none;stroke:black;stroke-width:3.33px;"/>
    </g>
    <g transform="matrix(0,-1,-1,-0,92.0569,412.92)">
        <ellipse cx="314.766" cy="37.723" rx="3.981" ry="3.981" style="fill:rgb(3,3,3);"/>
    </g>
    <g transform="matrix(0,-1,-1,-0,101.155,422.018)">
        <ellipse cx="323.865" cy="37.723" rx="3.981" ry="3.981" style="fill:rgb(3,3,3);"/>
    </g>
    <g transform="matrix(0,-1,-1,-0,177.355,498.218)">
        <ellipse cx="400.065" cy="37.723" rx="3.981" ry="3.981" style="fill:rgb(3,3,3);"/>
    </g>
    <g transform="matrix(0,-1,-1,-0,187.591,508.454)">
        <ellipse cx="410.3" cy="37.723" rx="3.981" ry="3.98" style="fill:rgb(3,3,3);"/>
    </g>
    <g transform="matrix(0,-1,-1,-0,197.941,518.576)">
        <ellipse cx="420.537" cy="37.837" rx="3.981" ry="3.981" style="fill:rgb(3,3,3);"/>
    </g>
    <g transform="matrix(0,-1,-1,-0,207.039,527.674)">
        <ellipse cx="429.635" cy="37.837" rx="3.981" ry="3.98" style="fill:rgb(3,3,3);"/>
    </g>
    <g transform="matrix(1,0,0,1,-260.432,27.1071)">
        <path d="M275.188,35.107C274.733,39.201 274.392,43.182 273.937,47.276C273.823,48.414 273.71,49.665 274.051,50.802C274.961,53.418 278.259,54.555 279.396,57.057C280.534,59.559 279.055,62.403 278.486,65.132C277.804,67.975 277.918,70.932 278.941,73.662" style="fill:none;stroke:black;stroke-width:3.33px;"/>
    </g>
    <g transform="matrix(1,0,0,1,-260.432,27.7895)">
        <path d="M282.24,49.551C281.898,51.029 280.192,51.712 278.6,51.712C278.259,51.712 277.918,51.712 277.69,51.826C276.894,52.167 276.894,53.304 277.008,54.214C277.122,55.124 277.008,56.034 276.894,56.943C276.78,57.398 276.667,57.853 276.326,58.081C276.098,58.308 275.757,58.308 275.416,58.308C274.165,58.422 272.572,58.536 271.776,57.512C271.321,57.057 271.208,56.375 271.094,55.692C270.866,54.896 270.753,54.1 270.525,53.418" style="fill:none;stroke:black;stroke-width:3.33px;"/>
    </g>
    <g transform="matrix(0,-1,-1,-0,89.2137,337.289)">
        <ellipse cx="275.53" cy="74.117" rx="3.981" ry="3.98" style="fill:rgb(3,3,3);"/>
    </g>
    <g transform="matrix(0,-1,-1,-0,81.025,358.898)">
        <ellipse cx="282.24" cy="59.218" rx="3.981" ry="3.98" style="fill:rgb(3,3,3);"/>
    </g>
    <g transform="matrix(0,-1,-1,-0,63.6244,351.96)">
        <ellipse cx="270.071" cy="53.986" rx="3.981" ry="3.981" style="fill:rgb(3,3,3);"/>
    </g>
    <g transform="matrix(0,-1,-1,-0,54.4121,378.004)">
        <ellipse cx="278.487" cy="36.358" rx="3.981" ry="3.981" style="fill:rgb(3,3,3);"/>
    </g>
    <g transform="matrix(1,0,0,1,-260.432,68.9601)">
        <path d="M274.392,32.377C274.961,33.06 275.529,33.856 275.984,34.538C274.506,34.311 274.392,34.197 274.392,32.377Z" style="fill:rgb(192,192,192);fill-rule:nonzero;"/>
    </g>
    <g transform="matrix(1,0,0,1,-260.432,65.6619)">
        <path d="M417.92,36.699C417.465,36.699 417.01,36.699 416.442,36.699C416.101,36.244 415.759,35.676 415.191,34.88C414.736,35.335 414.395,35.789 414.053,36.131C413.712,36.131 413.371,36.131 412.916,36.131C413.712,34.766 414.281,33.401 414.053,31.809C414.963,32.036 415.873,32.15 416.783,32.378C416.783,33.06 416.783,33.629 416.783,34.311C417.238,34.766 417.693,35.335 418.262,35.789C419.399,36.472 420.536,37.495 421.901,36.244C422.015,36.131 422.47,36.244 422.697,36.244C422.697,36.585 422.697,36.927 422.697,37.382C421.446,37.154 420.65,37.837 419.626,38.405C419.399,37.495 419.171,36.585 417.92,36.699Z" style="fill:rgb(170,170,170);fill-rule:nonzero;"/>
    </g>
    <g transform="matrix(1,0,0,1,-260.432,62.8186)">
        <path d="M357.87,38.974C357.188,38.405 356.506,38.405 355.71,38.405C355.482,38.405 355.368,38.405 355.141,38.405C355.482,37.837 355.823,37.268 355.71,36.472C355.596,35.676 355.71,34.88 355.71,34.084C355.937,34.425 356.278,34.766 356.619,35.221C356.961,34.993 357.416,34.766 357.87,34.652C357.87,35.448 357.757,36.244 357.87,37.041C357.984,37.723 358.212,38.291 358.439,38.974C358.212,38.974 357.984,38.974 357.87,38.974Z" style="fill:rgb(157,157,157);fill-rule:nonzero;"/>
    </g>
    <g transform="matrix(1,0,0,1,-260.432,68.2777)">
        <path d="M358.439,33.515C358.667,33.742 358.78,33.856 359.008,34.084C358.78,33.97 358.553,33.742 358.439,33.515Z" style="fill:rgb(157,157,157);fill-rule:nonzero;"/>
    </g>
    <g transform="matrix(1,0,0,1,-260.432,67.1404)">
        <path d="M427.133,34.652C426.905,34.425 426.791,34.311 426.564,34.084C426.791,34.311 426.905,34.538 427.133,34.652Z" style="fill:rgb(192,192,192);fill-rule:nonzero;"/>
    </g>
    <g transform="matrix(1,0,0,1,-260.432,97.0516)">
        <path d="M264.498,19.412L435.435,19.412" style="fill:none;stroke:rgb(165,163,164);stroke-width:5px;"/>
    </g>
    <g transform="matrix(0,1,1,0,-6.98761,-167.425)">
        <path d="M271.606,24.928L285.14,24.928" style="fill:none;stroke:rgb(165,163,164);stroke-width:3.33px;"/>
    </g>
    <g transform="matrix(1,0,0,1,-260.432,67.5953)">
        <path d="M283.263,31.695C283.263,34.425 281.102,36.586 278.373,36.586C275.643,36.586 273.482,34.425 273.482,31.695" style="fill:none;stroke:rgb(165,163,164);stroke-width:3.33px;"/>
    </g>
    <g transform="matrix(0,1,1,0,10.6404,-188.465)">
        <path d="M290.371,26.634L305.043,26.634" style="fill:none;stroke:rgb(165,163,164);stroke-width:3.33px;"/>
    </g>
    <g transform="matrix(1,0,0,1,-260.432,63.0461)">
        <path d="M302.597,33.97C302.597,36.699 300.436,38.86 297.707,38.86C294.977,38.86 292.816,36.699 292.816,33.97" style="fill:none;stroke:rgb(165,163,164);stroke-width:3.33px;"/>
    </g>
    <g transform="matrix(0,1,1,0,28.8377,-204.388)">
        <path d="M307.431,25.497L322.103,25.497" style="fill:none;stroke:rgb(165,163,164);stroke-width:3.33px;"/>
    </g>
    <g transform="matrix(1,0,0,1,-260.432,65.3207)">
        <path d="M319.657,32.832C319.657,35.562 317.496,37.723 314.767,37.723C312.037,37.723 309.876,35.562 309.876,32.832" style="fill:none;stroke:rgb(165,163,164);stroke-width:3.33px;"/>
    </g>
    <g transform="matrix(0,1,1,0,37.9357,-213.486)">
        <path d="M316.529,25.497L331.201,25.497" style="fill:none;stroke:rgb(165,163,164);stroke-width:3.33px;"/>
    </g>
    <g transform="matrix(1,0,0,1,-260.432,65.3207)">
        <path d="M328.755,32.832C328.755,35.562 326.595,37.723 323.865,37.723C321.135,37.723 318.975,35.562 318.975,32.832" style="fill:none;stroke:rgb(165,163,164);stroke-width:3.33px;"/>
    </g>
    <g transform="matrix(0,1,1,0,49.3084,-227.133)">
        <path d="M329.039,26.634L343.711,26.634" style="fill:none;stroke:rgb(165,163,164);stroke-width:3.33px;"/>
    </g>
    <g transform="matrix(1,0,0,1,-260.432,63.0461)">
        <path d="M341.266,33.97C341.266,36.699 339.105,38.86 336.375,38.86C333.646,38.86 331.485,36.699 331.485,33.97" style="fill:none;stroke:rgb(165,163,164);stroke-width:3.33px;"/>
    </g>
    <g transform="matrix(0,1,1,0,65.2307,-240.781)">
        <path d="M343.824,25.497L358.496,25.497" style="fill:none;stroke:rgb(165,163,164);stroke-width:3.33px;"/>
    </g>
    <g transform="matrix(1,0,0,1,-260.432,65.3207)">
        <path d="M356.051,32.832C356.051,35.562 353.89,37.723 351.16,37.723C348.431,37.723 346.27,35.562 346.27,32.832" style="fill:none;stroke:rgb(165,163,164);stroke-width:3.33px;"/>
    </g>
    <g transform="matrix(0,1,1,0,75.4667,-251.017)">
        <path d="M354.06,25.497L368.732,25.497" style="fill:none;stroke:rgb(165,163,164);stroke-width:3.33px;"/>
    </g>
    <g transform="matrix(1,0,0,1,-260.432,65.3207)">
        <path d="M366.287,32.832C366.287,35.562 364.126,37.723 361.396,37.723C358.667,37.723 356.506,35.562 356.506,32.832" style="fill:none;stroke:rgb(165,163,164);stroke-width:3.33px;"/>
    </g>
    <g transform="matrix(0,1,1,0,84.5657,-260.116)">
        <path d="M363.159,25.497L377.831,25.497" style="fill:none;stroke:rgb(165,163,164);stroke-width:3.33px;"/>
    </g>
    <g transform="matrix(1,0,0,1,-260.432,65.3207)">
        <path d="M375.385,32.832C375.385,35.562 373.224,37.723 370.495,37.723C367.765,37.723 365.604,35.562 365.604,32.832" style="fill:none;stroke:rgb(165,163,164);stroke-width:3.33px;"/>
    </g>
    <g transform="matrix(0,1,1,0,99.3504,-277.175)">
        <path d="M379.081,26.634L393.753,26.634" style="fill:none;stroke:rgb(165,163,164);stroke-width:3.33px;"/>
    </g>
    <g transform="matrix(1,0,0,1,-260.432,63.0461)">
        <path d="M391.307,33.97C391.307,36.699 389.146,38.86 386.417,38.86C383.687,38.86 381.526,36.699 381.526,33.97" style="fill:none;stroke:rgb(165,163,164);stroke-width:3.33px;"/>
    </g>
    <g transform="matrix(0,1,1,0,114.136,-289.686)">
        <path d="M392.729,25.497L407.401,25.497" style="fill:none;stroke:rgb(165,163,164);stroke-width:3.33px;"/>
    </g>
    <g transform="matrix(1,0,0,1,-260.432,65.3207)">
        <path d="M404.955,32.832C404.955,35.562 402.794,37.723 400.065,37.723C397.335,37.723 395.174,35.562 395.174,32.832" style="fill:none;stroke:rgb(165,163,164);stroke-width:3.33px;"/>
    </g>
    <g transform="matrix(0,1,1,0,124.371,-299.921)">
        <path d="M402.964,25.497L417.636,25.497" style="fill:none;stroke:rgb(165,163,164);stroke-width:3.33px;"/>
    </g>
    <g transform="matrix(1,0,0,1,-260.432,65.3207)">
        <path d="M415.191,32.832C415.191,35.562 413.03,37.723 410.3,37.723C407.571,37.723 405.41,35.562 405.41,32.832" style="fill:none;stroke:rgb(165,163,164);stroke-width:3.33px;"/>
    </g>
    <g transform="matrix(0,1,1,0,134.607,-310.157)">
        <path d="M413.2,25.497L427.872,25.497" style="fill:none;stroke:rgb(165,163,164);stroke-width:3.33px;"/>
    </g>
    <g transform="matrix(1,0,0,1,-260.432,65.3207)">
        <path d="M425.427,32.832C425.427,35.562 423.266,37.723 420.536,37.723C417.807,37.723 415.646,35.562 415.646,32.832" style="fill:none;stroke:rgb(165,163,164);stroke-width:3.33px;"/>
    </g>
    <g transform="matrix(0,1,1,0,143.706,-319.256)">
        <path d="M422.299,25.497L436.971,25.497" style="fill:none;stroke:rgb(165,163,164);stroke-width:3.33px;"/>
    </g>
    <g transform="matrix(1,0,0,1,-260.432,65.3207)">
        <path d="M434.525,32.832C434.525,35.562 432.364,37.723 429.635,37.723C426.905,37.723 424.744,35.562 424.744,32.832" style="fill:none;stroke:rgb(165,163,164);stroke-width:3.33px;"/>
    </g>
    <g transform="matrix(0,-1,-1,-0,135.503,275.988)">
        <circle cx="268.024" cy="127.912" r="3.981" style="fill:rgb(3,3,3);"/>
    </g>
    <g transform="matrix(0,-1,-1,-0,153.472,288.499)">
        <circle cx="283.264" cy="130.641" r="3.981" style="fill:rgb(3,3,3);"/>
    </g>
    <g transform="matrix(0,-1,-1,-0,126.859,315.112)">
        <circle cx="283.264" cy="104.028" r="3.981" style="fill:rgb(3,3,3);"/>
    </g>
    <g transform="matrix(0,-1,-1,-0,113.552,301.805)">
        <circle cx="269.956" cy="104.027" r="3.981" style="fill:rgb(3,3,3);"/>
    </g>
    <g transform="matrix(1,0,0,1,-260.432,-95.154)">
        <path d="M268.592,104.597C269.388,105.507 270.07,106.644 270.639,107.668C270.866,108.123 271.094,108.691 271.435,109.033C272.004,109.715 273.027,110.056 273.823,110.625C274.392,111.08 274.847,111.876 275.529,112.331C275.871,112.558 276.326,112.786 276.553,113.013C276.78,113.241 277.008,113.582 277.122,114.037C277.577,115.174 277.804,116.311 278.486,117.335C278.714,117.79 279.055,118.131 279.283,118.586C279.51,118.927 279.737,119.382 279.851,119.837C280.761,121.998 281.671,124.159 282.694,126.433" style="fill:none;stroke:black;stroke-width:3.33px;"/>
    </g>
    <g transform="matrix(1,0,0,1,-260.432,-98.907)">
        <path d="M283.036,104.824C283.036,105.848 282.922,106.985 282.922,108.009C282.922,109.374 282.808,110.852 282.24,112.103C281.671,113.241 280.647,114.15 279.51,114.605C279.169,114.719 278.828,114.833 278.6,115.06C278.486,115.288 278.373,115.515 278.259,115.743C277.577,117.904 277.122,120.064 277.008,122.339C277.008,122.68 277.008,123.135 276.667,123.363C276.553,123.476 276.326,123.59 276.098,123.59C274.961,123.931 273.823,124.272 272.686,124.159C272.231,124.159 271.776,124.045 271.549,124.386C271.321,124.614 271.321,124.955 271.321,125.182C271.321,125.41 271.208,125.637 271.094,125.865C270.412,127.229 269.843,128.594 269.16,129.959" style="fill:none;stroke:black;stroke-width:3.33px;"/>
    </g>
    <g transform="matrix(0,1,1,0,-75.454,-230.432)">
        <path d="M272.629,90.665L278.657,90.665" style="fill:none;stroke:black;stroke-width:1.67px;"/>
    </g>
    <g transform="matrix(-1,0,0,1,290.855,-53.6417)">
        <path d="M275.644,92.314C276.213,93.906 277.236,95.953 278.373,97.204L275.644,96.181L272.914,97.204C274.052,95.953 275.075,94.02 275.644,92.314Z" style="fill-rule:nonzero;"/>
    </g>
    <g transform="matrix(1,0,0,1,-260.432,-37.4919)">
        <path d="M275.643,89.129C275.074,87.537 274.051,85.49 272.914,84.239L275.643,85.262L278.373,84.239C277.235,85.49 276.212,87.537 275.643,89.129Z" style="fill-rule:nonzero;"/>
    </g>
    <g transform="matrix(1,0,0,1,-260.432,24.7188)">
        <path d="M292.02,55.579L298.048,55.579" style="fill:none;stroke:black;stroke-width:1.67px;"/>
    </g>
    <g transform="matrix(0,1,1,0,-25.0711,-210.643)">
        <path d="M290.94,53.134C291.509,54.726 292.532,56.773 293.669,58.024L290.94,57.001L288.21,58.024C289.348,56.773 290.371,54.84 290.94,53.134Z" style="fill-rule:nonzero;"/>
    </g>
    <g transform="matrix(0,-1,-1,-0,94.1611,379.312)">
        <path d="M299.015,53.134C298.446,54.726 297.423,56.773 296.286,58.024L299.015,57.001L301.745,58.024C300.607,56.773 299.584,54.726 299.015,53.134Z" style="fill-rule:nonzero;"/>
    </g>
    <g transform="matrix(1,0,0,1,-260.432,43.7119)">
        <path d="M400.633,52.053C400.292,49.096 400.292,46.139 400.633,43.296C400.747,42.272 400.974,41.249 401.657,40.566C402.339,39.884 403.477,39.77 404.386,39.77C405.979,39.77 407.457,39.997 408.936,40.566C409.391,41.703 409.845,42.954 410.869,43.637C411.665,44.092 412.575,44.206 413.371,44.547C416.669,45.684 418.489,49.21 419.967,52.394" style="fill:none;stroke:black;stroke-width:3.33px;"/>
    </g>
    <g transform="matrix(1,0,0,1,-260.432,45.5316)">
        <path d="M410.073,50.574C409.959,48.414 409.959,46.253 409.845,44.092C409.845,43.864 409.845,43.523 409.959,43.296C410.073,43.068 410.3,42.954 410.528,42.954C412.006,42.613 413.599,43.182 414.963,42.5C415.873,42.045 416.442,41.135 417.352,40.566C418.034,40.111 418.83,39.997 419.626,39.884C421.901,39.429 424.062,39.088 426.336,38.633C427.133,38.519 427.929,38.405 428.497,38.746C429.407,39.315 429.521,40.566 429.635,41.59C429.748,45.002 429.862,48.414 429.976,51.939" style="fill:none;stroke:black;stroke-width:3.33px;"/>
    </g>
    <g transform="matrix(1,0,0,1,-260.432,23.809)">
        <path d="M312.492,40.225C312.719,42.5 312.264,44.774 311.241,46.708C310.9,47.504 310.331,48.186 310.217,48.982C309.876,51.029 311.696,52.849 313.515,53.873C315.335,54.896 317.496,55.806 318.52,57.626C319.771,59.673 319.202,62.744 321.135,64.336C321.704,64.791 322.386,65.132 322.955,65.587C324.661,67.065 324.547,69.681 324.206,71.842" style="fill:none;stroke:black;stroke-width:3.33px;"/>
    </g>
    <g transform="matrix(1,0,0,1,-260.432,35.1821)">
        <path d="M325.343,40.225C323.751,41.703 321.818,42.841 319.771,43.409C318.861,43.637 317.837,43.751 316.927,44.206C316.018,44.547 315.108,45.229 314.312,45.911C313.629,46.48 312.833,47.049 312.151,47.617C311.696,47.959 311.241,48.3 310.9,48.868C310.331,49.665 310.445,50.802 310.9,51.712C311.355,52.622 312.151,53.304 312.947,53.759C313.515,54.1 314.084,54.328 314.539,54.782C315.221,55.465 315.449,56.602 315.335,57.626C315.221,58.649 314.653,59.559 314.198,60.469" style="fill:none;stroke:black;stroke-width:3.33px;"/>
    </g>
    <g transform="matrix(0,-1,-1,-0,123.788,375.957)">
        <ellipse cx="312.15" cy="72.07" rx="3.981" ry="3.98" style="fill:rgb(3,3,3);"/>
    </g>
    <g transform="matrix(0,-1,-1,-0,125.38,400.751)">
        <ellipse cx="325.344" cy="60.469" rx="3.981" ry="3.981" style="fill:rgb(3,3,3);"/>
    </g>
    <g transform="matrix(1,0,0,1,-260.432,28.3582)">
        <path d="M335.92,53.759L341.948,53.759" style="fill:none;stroke:black;stroke-width:1.67px;"/>
    </g>
    <g transform="matrix(0,1,1,0,20.6486,-252.723)">
        <path d="M334.84,51.314C335.409,52.906 336.432,54.953 337.569,56.204L334.84,55.181L332.11,56.204C333.248,54.953 334.271,53.02 334.84,51.314Z" style="fill-rule:nonzero;"/>
    </g>
    <g transform="matrix(0,-1,-1,-0,136.241,425.032)">
        <path d="M342.915,51.314C342.346,52.906 341.323,54.953 340.186,56.204L342.915,55.181L345.645,56.204C344.507,54.953 343.484,52.906 342.915,51.314Z" style="fill-rule:nonzero;"/>
    </g>
    <g transform="matrix(1,0,0,1,-260.432,33.8172)">
        <path d="M382.095,51.029L388.123,51.029" style="fill:none;stroke:black;stroke-width:1.67px;"/>
    </g>
    <g transform="matrix(0,1,1,0,69.5527,-296.168)">
        <path d="M381.014,48.584C381.583,50.177 382.607,52.224 383.744,53.475L381.014,52.451L378.285,53.475C379.422,52.224 380.446,50.29 381.014,48.584Z" style="fill-rule:nonzero;"/>
    </g>
    <g transform="matrix(0,-1,-1,-0,179.686,473.936)">
        <path d="M389.09,48.584C388.521,50.176 387.497,52.224 386.36,53.475L389.09,52.451L391.819,53.475C390.682,52.224 389.658,50.176 389.09,48.584Z" style="fill-rule:nonzero;"/>
    </g>
</svg>
