<?xml version="1.0" encoding="UTF-8" standalone="no"?>
<!DOCTYPE svg PUBLIC "-//W3C//DTD SVG 1.1//EN" "http://www.w3.org/Graphics/SVG/1.1/DTD/svg11.dtd">
<svg width="100%" height="100%" viewBox="0 0 123 120" version="1.1" xmlns="http://www.w3.org/2000/svg" xmlns:xlink="http://www.w3.org/1999/xlink" xml:space="preserve" xmlns:serif="http://www.serif.com/" style="fill-rule:evenodd;clip-rule:evenodd;stroke-linecap:round;stroke-linejoin:round;">
    <g transform="matrix(1,0,0,1,0.5,-18.9626)">
        <rect x="21.976" y="21.755" width="97.453" height="97.453" style="fill:rgb(208,181,181);fill-opacity:0;stroke:black;stroke-width:0.45px;"/>
    </g>
    <g transform="matrix(1,0,0,1,0.5,-9.5438)">
        <path d="M22.298,99.183C22.298,99.183 34.787,71.701 65.214,52.031C95.642,32.361 119.893,32.973 119.893,32.973" style="fill:rgb(26,197,230);fill-opacity:0.305882;stroke:rgb(1,115,178);stroke-width:1.12px;"/>
    </g>
    <g transform="matrix(1,0,0,1,0.5,-8.6399)">
        <path d="M119.929,32.269C119.929,32.269 97.006,67.176 77.694,80.101C58.383,93.026 22.261,98.371 22.261,98.371" style="fill:rgb(255,0,9);fill-opacity:0.235294;stroke:rgb(1,115,178);stroke-width:1.12px;"/>
    </g>
    <g transform="matrix(1,0,0,1,0.5,-8.6639)">
        <path d="M23.428,98.116C23.568,98.685 23.338,99.281 22.854,99.611C22.213,100.046 21.339,99.88 20.903,99.239C20.467,98.598 20.634,97.724 21.275,97.288C21.759,96.959 22.398,96.965 22.876,97.304L118.102,32.547C117.962,31.978 118.192,31.382 118.676,31.053C119.317,30.618 120.191,30.783 120.626,31.424C121.063,32.065 120.897,32.939 120.255,33.375C119.77,33.704 119.132,33.699 118.655,33.36L23.428,98.116Z" style="fill:rgb(222,143,5);"/>
    </g>
    <g transform="matrix(1,0,0,1,0.5,-9)">
        <text x="41.535px" y="115.932px" style="font-family:'ArialMT', 'Arial', sans-serif;font-size:7.303px;">Percentage Ig</text>
        <text x="87.007px" y="115.932px" style="font-family:'ArialMT', 'Arial', sans-serif;font-size:7.303px;">G</text>
        <text x="92.716px" y="115.932px" style="font-family:'ArialMT', 'Arial', sans-serif;font-size:7.303px;">Y</text>
    </g>
    <g transform="matrix(0.866025,-0.5,0.5,0.866025,0.5,-9)">
        <text x="-62.486px" y="111.197px" style="font-family:'ArialMT', 'Arial', sans-serif;font-size:5.477px;">100% Ig</text>
        <text x="-42.39px" y="111.197px" style="font-family:'ArialMT', 'Arial', sans-serif;font-size:5.477px;">G</text>
        <text x="-38.108px" y="111.197px" style="font-family:'ArialMT', 'Arial', sans-serif;font-size:5.477px;">X</text>
    </g>
    <g transform="matrix(0.866025,-0.5,0.5,0.866025,1.5,-9)">
        <text x="19.286px" y="158.652px" style="font-family:'ArialMT', 'Arial', sans-serif;font-size:5.477px;">100% IgGY</text>
    </g>
    <g transform="matrix(0,-1,1,0,0.5,-9)">
        <text x="-111.2px" y="16.638px" style="font-family:'ArialMT', 'Arial', sans-serif;font-size:7.303px;">Binding/Multimerization/Activit</text>
        <text x="-14.199px" y="16.638px" style="font-family:'ArialMT', 'Arial', sans-serif;font-size:7.303px;">y</text>
    </g>
    <g transform="matrix(0.822242,-0.569138,0.569138,0.822242,0.5,-9)">
        <text x="-3.514px" y="75.575px" style="font-family:'ArialMT', 'Arial', sans-serif;font-size:8.951px;">Synergistic</text>
    </g>
    <g transform="matrix(0.829237,-0.558897,0.558897,0.829237,0.5,-9)">
        <text x="5.589px" y="92.748px" style="font-family:'ArialMT', 'Arial', sans-serif;font-size:8.951px;">Additi</text>
        <text x="27.979px" y="92.748px" style="font-family:'ArialMT', 'Arial', sans-serif;font-size:8.951px;">v</text>
        <text x="32.441px" y="92.748px" style="font-family:'ArialMT', 'Arial', sans-serif;font-size:8.951px;">e</text>
    </g>
    <g transform="matrix(0.785674,-0.618641,0.618641,0.785674,0.5,-9)">
        <text x="-7.328px" y="119.419px" style="font-family:'ArialMT', 'Arial', sans-serif;font-size:8.951px;">Antagonisti</text>
        <text x="36.958px" y="119.419px" style="font-family:'ArialMT', 'Arial', sans-serif;font-size:8.951px;">c</text>
    </g>
</svg>
